<svg width="32" height="32" viewBox="0 0 32 32" xmlns="http://www.w3.org/2000/svg">

  <g fill="#905e26">
    <path d="M1.1035 5.195 l7.832 0 q1.142578125 0 2.041015625 0.341796875 t1.5137 0.91309 t0.94238 1.3281 t0.32715 1.5771 q0 0.751953125 -0.1611328125 1.318359375 t-0.46875 1.0059 t-0.75684 0.77637 t-1.0254 0.61035 q0.498046875 0.25390625 0.87890625 0.7763671875 t0.57617 1.3525 l0.49805 1.9238 l1.2207 0 l0.019531 2.8809 l-4.2969 0 l-0.58594 -3.5156 q-0.087890625 -0.625 -0.2685546875 -1.079101563 t-0.4834 -0.74219 t-0.7373 -0.4248 t-1.0303 -0.13672 l-1.2598 0 l0 3.2227 l1.3574 0 l0 2.6758 l-6.1328 0 l0 -2.6758 l1.5332 0 l0 -9.4434 l-1.5332 0 l0 -2.6855 z M5.8789 7.881 l0 3.584 l1.9434 0 q0.556640625 0 1.000976563 -0.1025390625 t0.76172 -0.32227 t0.48828 -0.55176 t0.1709 -0.79102 q0 -0.859375 -0.615234375 -1.337890625 t-1.8066 -0.47852 l-1.9434 0 z"></path>
  </g>
</svg>
